<svg width="100" height="17" viewBox="0 0 100 17" fill="none" xmlns="http://www.w3.org/2000/svg">
<path d="M8.60001 2.43927L10.1333 5.7726C10.2 5.9726 10.4 6.10593 10.6 6.1726L14.0667 6.70593C14.6667 6.70593 14.8667 7.3726 14.4667 7.7726L11.9333 10.3726C11.8 10.5059 11.7333 10.7726 11.7333 10.9726L12.3333 14.5726C12.4 15.1059 11.8667 15.5726 11.4 15.3059L8.26667 13.5726C8.06667 13.4393 7.86667 13.4393 7.66667 13.5726L4.53334 15.3059C4.06667 15.5726 3.46667 15.1726 3.60001 14.5726L4.20001 10.9726C4.26667 10.7726 4.13334 10.5059 4.00001 10.3726L1.46667 7.7726C1.13334 7.3726 1.33334 6.70593 1.86667 6.63927L5.33334 6.10594C5.53334 6.10594 5.73334 5.90593 5.80001 5.70593L7.33334 2.3726C7.66667 1.90593 8.33334 1.90593 8.60001 2.43927Z" fill="black"/>
<path d="M29.6 2.43927L31.1333 5.7726C31.2 5.9726 31.4 6.10593 31.6 6.1726L35.0667 6.70593C35.6667 6.70593 35.8667 7.3726 35.4667 7.7726L32.9333 10.3726C32.8 10.5059 32.7333 10.7726 32.7333 10.9726L33.3333 14.5726C33.4 15.1059 32.8667 15.5726 32.4 15.3059L29.2667 13.5726C29.0667 13.4393 28.8667 13.4393 28.6667 13.5726L25.5333 15.3059C25.0667 15.5726 24.4667 15.1726 24.6 14.5726L25.2 10.9726C25.2667 10.7726 25.1333 10.5059 25 10.3726L22.4667 7.7726C22.1333 7.3726 22.3333 6.70593 22.8667 6.63927L26.3333 6.10594C26.5333 6.10594 26.7333 5.90593 26.8 5.70593L28.3333 2.3726C28.6667 1.90593 29.3333 1.90593 29.6 2.43927Z" fill="black"/>
<path d="M50.6 2.43927L52.1333 5.7726C52.2 5.9726 52.4 6.10593 52.6 6.1726L56.0667 6.70593C56.6667 6.70593 56.8667 7.3726 56.4667 7.7726L53.9333 10.3726C53.8 10.5059 53.7333 10.7726 53.7333 10.9726L54.3333 14.5726C54.4 15.1059 53.8667 15.5726 53.4 15.3059L50.2667 13.5726C50.0667 13.4393 49.8667 13.4393 49.6667 13.5726L46.5333 15.3059C46.0667 15.5726 45.4667 15.1726 45.6 14.5726L46.2 10.9726C46.2667 10.7726 46.1333 10.5059 46 10.3726L43.4667 7.7726C43.1333 7.3726 43.3333 6.70593 43.8667 6.63927L47.3333 6.10593C47.5333 6.10593 47.7333 5.90593 47.8 5.70593L49.3333 2.3726C49.6667 1.90593 50.3333 1.90593 50.6 2.43927Z" fill="black"/>
<path d="M71.6 2.43927L73.1333 5.7726C73.2 5.9726 73.4 6.10593 73.6 6.1726L77.0667 6.70593C77.6667 6.70593 77.8667 7.3726 77.4667 7.7726L74.9333 10.3726C74.8 10.5059 74.7333 10.7726 74.7333 10.9726L75.3333 14.5726C75.4 15.1059 74.8667 15.5726 74.4 15.3059L71.2667 13.5726C71.0667 13.4393 70.8667 13.4393 70.6667 13.5726L67.5333 15.3059C67.0667 15.5726 66.4667 15.1726 66.6 14.5726L67.2 10.9726C67.2667 10.7726 67.1333 10.5059 67 10.3726L64.4667 7.7726C64.1333 7.3726 64.3333 6.70593 64.8667 6.63927L68.3333 6.10594C68.5333 6.10594 68.7333 5.90593 68.8 5.70593L70.3333 2.3726C70.6667 1.90593 71.3333 1.90593 71.6 2.43927Z" fill="black"/>
<path d="M92.6 2.43927L94.1333 5.7726C94.2 5.9726 94.4 6.10593 94.6 6.1726L98.0667 6.70593C98.6667 6.70593 98.8667 7.3726 98.4667 7.7726L95.9333 10.3726C95.8 10.5059 95.7333 10.7726 95.7333 10.9726L96.3333 14.5726C96.4 15.1059 95.8667 15.5726 95.4 15.3059L92.2667 13.5726C92.0667 13.4393 91.8667 13.4393 91.6667 13.5726L88.5333 15.3059C88.0667 15.5726 87.4667 15.1726 87.6 14.5726L88.2 10.9726C88.2667 10.7726 88.1333 10.5059 88 10.3726L85.4667 7.7726C85.1333 7.3726 85.3333 6.70593 85.8667 6.63927L89.3333 6.10594C89.5333 6.10594 89.7333 5.90593 89.8 5.70593L91.3333 2.3726C91.6667 1.90593 92.3333 1.90593 92.6 2.43927Z" fill="#909090"/>
</svg>
